<svg width="18" height="18" viewBox="0 0 18 18" fill="none" xmlns="http://www.w3.org/2000/svg">
<path d="M7.38821 1.55588C7.46078 1.51959 7.51962 1.46075 7.55591 1.38817L7.9146 0.670796C8.0528 0.394403 8.44722 0.394403 8.58542 0.670796L8.94411 1.38817C8.98039 1.46075 9.03924 1.51959 9.11181 1.55588L9.82919 1.91457C10.1056 2.05276 10.1056 2.44719 9.82919 2.58539L9.11181 2.94407C9.03924 2.98036 8.98039 3.03921 8.94411 3.11178L8.58542 3.82916C8.44722 4.10555 8.0528 4.10555 7.9146 3.82916L7.55591 3.11178C7.51962 3.03921 7.46078 2.98036 7.38821 2.94407L6.67083 2.58539C6.39444 2.44719 6.39444 2.05276 6.67083 1.91457L7.38821 1.55588Z" fill="#D8D8D8"/>
<path d="M14.1382 9.80588C14.2108 9.76959 14.2696 9.71074 14.3059 9.63817L14.6646 8.9208C14.8028 8.6444 15.1972 8.6444 15.3354 8.9208L15.6941 9.63817C15.7304 9.71074 15.7892 9.76959 15.8618 9.80588L16.5792 10.1646C16.8556 10.3028 16.8556 10.6972 16.5792 10.8354L15.8618 11.1941C15.7892 11.2304 15.7304 11.2892 15.6941 11.3618L15.3354 12.0792C15.1972 12.3555 14.8028 12.3555 14.6646 12.0792L14.3059 11.3618C14.2696 11.2892 14.2108 11.2304 14.1382 11.1941L13.4208 10.8354C13.1444 10.6972 13.1444 10.3028 13.4208 10.1646L14.1382 9.80588Z" fill="#D8D8D8"/>
<path d="M3.63821 5.30588C3.71078 5.26959 3.76962 5.21074 3.80591 5.13817L4.1646 4.4208C4.3028 4.1444 4.69722 4.1444 4.83542 4.4208L5.19411 5.13817C5.23039 5.21074 5.28924 5.26959 5.36181 5.30588L6.07919 5.66457C6.35558 5.80276 6.35558 6.19719 6.07919 6.33539L5.36181 6.69407C5.28924 6.73036 5.23039 6.78921 5.19411 6.86178L4.83542 7.57916C4.69722 7.85555 4.3028 7.85555 4.1646 7.57916L3.80591 6.86178C3.76962 6.78921 3.71078 6.73036 3.63821 6.69407L2.92083 6.33539C2.64444 6.19719 2.64444 5.80276 2.92083 5.66457L3.63821 5.30588Z" fill="#D8D8D8"/>
<path fill-rule="evenodd" clip-rule="evenodd" d="M12.8143 2.24998C13.4001 1.66419 14.3499 1.66419 14.9357 2.24998L15.75 3.06432C16.3358 3.6501 16.3358 4.59985 15.75 5.18564L5.18567 15.75C4.59988 16.3358 3.65014 16.3358 3.06435 15.75L2.25001 14.9356C1.66422 14.3498 1.66422 13.4001 2.25001 12.8143L12.8143 2.24998ZM12.1232 5.06248L12.9375 5.87682L14.6893 4.12498L13.875 3.31064L12.1232 5.06248Z" fill="#D8D8D8"/>
</svg>
