<svg width="190" height="24" viewBox="0 0 190 24" fill="none" xmlns="http://www.w3.org/2000/svg">
<path d="M180.076 23.12C174.398 23.12 170.522 20.332 170.522 14.28C170.522 8.84001 174.364 5.40601 179.974 5.40601C185.55 5.40601 189.256 8.33001 189.256 13.668C189.256 14.28 189.188 14.722 189.12 15.3H175.248C175.384 17.918 176.608 19.04 179.906 19.04C182.932 19.04 183.986 18.258 183.986 16.796V16.456H189.086V16.83C189.086 20.536 185.482 23.12 180.076 23.12ZM179.872 9.38401C176.846 9.38401 175.554 10.404 175.316 12.614H184.36C184.224 10.37 182.864 9.38401 179.872 9.38401Z" fill="#CED4D4"/>
<path d="M168.362 22.78H163.262V0H168.362V22.78Z" fill="#CED4D4"/>
<path d="M161.246 22.78H143.158V18.428L150.468 12.614L154.038 10.37V10.03L150.468 10.234H143.668V5.74603H160.736V10.132L152.848 16.218L149.618 18.224V18.564L152.848 18.326H161.246V22.78Z" fill="#CED4D4"/>
<path d="M141.855 22.78H123.767V18.428L131.077 12.614L134.647 10.37V10.03L131.077 10.234H124.277V5.74603H141.345V10.132L133.457 16.218L130.227 18.224V18.564L133.457 18.326H141.855V22.78Z" fill="#CED4D4"/>
<path d="M109.838 23.12C105.044 23.12 102.766 20.162 102.766 16.354V5.74603H107.866V14.654C107.866 17.408 109.022 18.564 112.252 18.564C115.584 18.564 116.774 17.272 116.774 14.382V5.74603H121.874V22.78H117.114V17.578H116.842C116.4 20.434 114.326 23.12 109.838 23.12Z" fill="#CED4D4"/>
<path d="M85.5207 22.78H80.4207V0H92.3207C97.5907 0 100.991 2.992 100.991 8.228C100.991 13.464 97.5907 16.49 92.3207 16.49H85.5207V22.78ZM91.7767 4.59H85.5207V11.9H91.7767C94.5987 11.9 95.9247 11.084 95.9247 8.228C95.9247 5.44 94.5987 4.59 91.7767 4.59Z" fill="#CED4D4"/>
<path d="M72.7874 14.926H41.1334V10.54H72.7874V14.926Z" fill="#CED4D4"/>
<path d="M33.5578 22.78H28.4578V0H33.5578V22.78Z" fill="#CED4D4"/>
<path d="M5.712 22.78H0L9.962 0H17.238L27.268 22.78H21.42L19.278 17.748H7.888L5.712 22.78ZM12.002 8.194L9.86 13.158H17.306L15.164 8.194L13.77 4.658H13.396L12.002 8.194Z" fill="#CED4D4"/>
</svg>
